<svg id="Camada_1" data-name="Camada 1" xmlns="http://www.w3.org/2000/svg" xmlns:xlink="http://www.w3.org/1999/xlink" viewBox="0 0 550.97 827.94"><defs><style>.cls-1{fill:none;}.cls-1,.cls-2,.cls-3,.cls-4,.cls-5{stroke:#1d1d1b;stroke-miterlimit:10;}.cls-1,.cls-2{stroke-width:5px;}.cls-2,.cls-3,.cls-4{fill:#1d1d1b;}.cls-4,.cls-5{stroke-width:2px;}.cls-5{fill:#fff;}</style></defs><title>FrameComSilhueta-vetor</title><polygon class="cls-1" points="548.47 81.34 492.24 25.11 53.79 25.11 2.5 74.31 2.5 313.67 40.68 349 39.54 576.96 91.41 624.26 92.54 753.06 111.92 773.58 305.12 773.58 357.55 825.44 482.93 825.44 548.47 759.33 548.47 403.14 548.47 81.34"/><polygon class="cls-2" points="534.22 418.53 548.47 403.14 548.47 759.33 508.46 799.68 508.46 777 534.22 751.92 534.22 418.53"/><polyline class="cls-1" points="492.05 43.53 535.93 87.42 535.93 273.2"/><polygon class="cls-2" points="506.86 25.11 548.47 25.11 548.47 66.33 506.86 25.11"/><polyline class="cls-1" points="403.14 25.11 383.19 2.5 46.95 2.5 5.35 42.96"/><polyline class="cls-1" points="62.91 46.38 21.88 90.27 21.88 331.6"/><polyline class="cls-2" points="73.17 733.11 73.17 706.33 73.17 629.96 21.88 580.38 21.88 352.42 2.5 334.18 2.5 599.19 47.52 643.07 48.66 682.39 70.32 704.62 72.6 706.83 74.2 708.54"/><polygon class="cls-2" points="2.5 639.46 18.46 653.9 18.46 796.37 33.66 812.33 81.15 812.33 94.44 825.44 20.74 825.44 2.5 807.39 2.5 639.46"/><polygon class="cls-3" points="25.3 673.27 25.3 689.61 53.79 716.59 53.79 700.63 25.3 673.27"/><polygon class="cls-3" points="25.3 694.55 25.3 710.89 53.79 737.86 53.79 721.9 25.3 694.55"/><polygon class="cls-3" points="25.3 716.21 25.3 732.54 53.79 759.52 53.79 743.56 25.3 716.21"/><polygon class="cls-3" points="25.3 737.86 25.3 754.2 53.79 781.17 53.79 765.22 25.3 737.86"/><polygon class="cls-3" points="25.3 760.53 25.3 776.87 53.79 803.85 53.79 787.89 25.3 760.53"/><polygon class="cls-4" points="62.15 743.18 62.15 799.41 83.05 799.41 90.64 807.01 126.74 807.01 62.15 743.18"/><polygon class="cls-3" points="116.86 781.17 145.74 813.47 334.18 813.47 301.13 778.9 116.86 778.9 116.86 781.17"/><polygon class="cls-5" points="140.92 784.64 159.92 784.64 181.58 807.44 163.34 807.44 140.92 784.64"/><polygon class="cls-5" points="187.02 784.64 206.02 784.64 227.68 807.44 209.44 807.44 187.02 784.64"/><polygon class="cls-5" points="234.4 784.64 253.4 784.64 275.05 807.44 256.82 807.44 234.4 784.64"/><polygon class="cls-5" points="277.38 784.64 296.38 784.64 318.04 807.44 299.8 807.44 277.38 784.64"/><polyline class="cls-4" points="88.36 25.11 102.42 38.02 246.8 38.02 263.13 25.11"/><image width="224" height="512" transform="translate(122.67 64.69) scale(1.36)" xlink:href="../../../../images/icones/silhueta%20recortada.png"/></svg>