<?xml version="1.0" encoding="utf-8"?>
<!-- Generator: Adobe Illustrator 23.0.0, SVG Export Plug-In . SVG Version: 6.00 Build 0)  -->
<svg version="1.1" id="Camada_1" xmlns="http://www.w3.org/2000/svg" xmlns:xlink="http://www.w3.org/1999/xlink" x="0px" y="0px"
	 viewBox="0 0 595.3 841.9" style="enable-background:new 0 0 595.3 841.9;" xml:space="preserve">
<style type="text/css">
	.st0{fill:none;stroke:#000000;stroke-width:5;stroke-miterlimit:10;}
	.st1{stroke:#000000;stroke-width:5;stroke-miterlimit:10;}
	.st2{stroke:#000000;stroke-miterlimit:10;}
	.st3{stroke:#000000;stroke-width:2;stroke-miterlimit:10;}
	.st4{fill:#FFFFFF;stroke:#000000;stroke-width:2;stroke-miterlimit:10;}
</style>
<g>
	<polygon class="st0" points="570.6,89.3 514.4,33.1 75.9,33.1 24.6,82.3 24.6,321.7 62.8,357 61.7,585 113.5,632.3 114.7,761.1 
		134,781.6 327.2,781.6 379.7,833.4 505.1,833.4 570.6,767.3 570.6,411.1 	"/>
	<polygon class="st1" points="556.3,426.5 570.6,411.1 570.6,767.3 530.6,807.7 530.6,785 556.3,759.9 	"/>
	<polyline class="st0" points="514.2,51.5 558.1,95.4 558.1,281.2 	"/>
	<polygon class="st1" points="529,33.1 570.6,33.1 570.6,74.3 	"/>
	<polyline class="st0" points="425.3,33.1 405.3,10.5 69.1,10.5 27.5,51 	"/>
	<polyline class="st0" points="85,54.4 44,98.3 44,339.6 	"/>
	<polyline class="st1" points="95.3,741.1 95.3,714.3 95.3,638 44,588.4 44,360.4 24.6,342.2 24.6,607.2 69.6,651.1 70.8,690.4 
		92.4,712.6 94.7,714.8 96.3,716.5 	"/>
	<polygon class="st1" points="24.6,647.5 40.6,661.9 40.6,804.4 55.8,820.3 103.3,820.3 116.6,833.4 42.9,833.4 24.6,815.4 	"/>
	<polygon class="st2" points="47.4,681.3 47.4,697.6 75.9,724.6 75.9,708.6 	"/>
	<polygon class="st2" points="47.4,702.6 47.4,718.9 75.9,745.9 75.9,729.9 	"/>
	<polygon class="st2" points="47.4,724.2 47.4,740.5 75.9,767.5 75.9,751.6 	"/>
	<polygon class="st2" points="47.4,745.9 47.4,762.2 75.9,789.2 75.9,773.2 	"/>
	<polygon class="st2" points="47.4,768.5 47.4,784.9 75.9,811.8 75.9,795.9 	"/>
	<polygon class="st3" points="84.3,751.2 84.3,807.4 105.2,807.4 112.8,815 148.9,815 	"/>
	<polygon class="st2" points="139,789.2 167.9,821.5 356.3,821.5 323.3,786.9 139,786.9 	"/>
	<polygon class="st4" points="163,792.6 182,792.6 203.7,815.4 185.5,815.4 	"/>
	<polygon class="st4" points="209.1,792.6 228.1,792.6 249.8,815.4 231.6,815.4 	"/>
	<polygon class="st4" points="256.5,792.6 275.5,792.6 297.2,815.4 278.9,815.4 	"/>
	<polygon class="st4" points="299.5,792.6 318.5,792.6 340.2,815.4 321.9,815.4 	"/>
	<polyline class="st3" points="110.5,33.1 124.5,46 268.9,46 285.3,33.1 	"/>
</g>
<image style="overflow:visible;" width="176" height="434" xlink:href="../../../../images/assets/manSilhouetteSmall.png"  transform="matrix(1.5797 0 0 1.5797 160.4941 68.345)">
</image>
</svg>
